<svg version="1.1" id="Layer_1" xmlns="http://www.w3.org/2000/svg" xmlns:xlink="http://www.w3.org/1999/xlink" x="0px" y="0px" width="100%" viewBox="0 0 180 180" enable-background="new 0 0 180 180" xml:space="preserve">

<path fill="#BAC7B7" opacity="1.000000" stroke="none" d="
M136.022369,77.001648 
	C136.035416,78.056465 136.048447,79.111290 135.951126,80.872269 
	C122.973595,85.867561 110.156189,90.316750 97.207047,94.342148 
	C93.614296,95.459007 92.757538,97.205116 92.793854,100.687813 
	C92.965012,117.099937 92.881905,133.514709 92.889496,149.928543 
	C91.653938,149.853989 90.418373,149.779434 89.013336,148.970917 
	C89.541565,144.823807 88.493263,143.024414 84.868660,141.711487 
	C70.176979,136.389694 55.631676,130.660248 41.087368,124.941330 
	C39.812531,124.440063 38.029438,122.933830 38.014481,121.872787 
	C37.810684,107.414864 37.877357,92.953125 37.877357,77.895149 
	C55.101387,83.916367 71.764328,89.741447 88.407661,95.559662 
	C89.901054,91.510399 88.423355,90.024582 85.123604,88.898254 
	C68.926163,83.369499 52.792023,77.652382 36.693592,71.840942 
	C35.085728,71.260513 32.902538,69.763222 32.663696,68.398010 
	C32.077816,65.049141 32.472195,61.528786 32.472195,57.293427 
	C52.261547,63.655273 71.247635,69.758888 90.233734,75.862503 
	C90.615395,75.226349 90.997063,74.590202 91.378723,73.954048 
	C90.215996,72.932114 89.217903,71.424225 87.864311,70.965637 
	C77.635574,67.500160 67.328308,64.267342 57.063755,60.906338 
	C51.388348,59.048000 45.747986,57.082634 38.817516,54.733589 
	C56.746483,48.936272 73.170982,43.581459 89.645912,38.386539 
	C90.887047,37.995178 92.536194,38.578590 93.913460,38.986496 
	C111.548981,44.209614 129.172531,49.473324 146.781662,54.784569 
	C147.423019,54.978020 147.885574,55.764259 149.168060,56.962387 
	C138.959824,60.462273 129.474472,63.714314 119.605690,66.964386 
	C114.477524,68.473335 109.725288,69.961197 104.989471,71.499573 
	C91.655914,75.830856 91.658066,75.839104 93.074814,90.069099 
	C93.088814,90.209610 93.214111,90.339050 93.469048,90.806992 
	C102.197678,87.908455 110.991997,84.988091 120.872025,81.707199 
	C119.587318,79.502090 118.523079,77.675407 117.285339,75.550903 
	C118.529053,73.823891 120.119095,71.615967 121.992188,69.175308 
	C124.593063,70.076843 126.910889,71.211113 128.603882,72.039612 
	C127.369431,74.918579 126.448486,77.066406 125.187775,80.006630 
	C129.746460,78.742271 132.884415,77.871964 136.022369,77.001648 
M63.207458,102.268196 
	C65.539192,103.110901 67.822968,104.140358 70.213455,104.754265 
	C74.190460,105.775620 76.889496,103.980965 77.588715,100.242569 
	C78.372360,96.052795 76.370895,94.433319 72.353142,94.455345 
	C72.110657,96.038033 71.870163,97.607719 71.563141,99.611618 
	C65.784866,97.594711 60.272507,95.834137 54.920654,93.675606 
	C53.736794,93.198120 53.097992,91.328583 52.248291,90.072922 
	C51.032406,88.276100 49.853409,86.454315 48.658661,84.643196 
	C45.905220,94.646996 47.111187,96.747520 55.439938,99.545341 
	C57.791527,100.335297 60.122181,101.187599 63.207458,102.268196 
z" data-index="1"></path>
<path fill="#232E34" opacity="1.000000" stroke="none" d="
M93.246132,149.867523 
	C92.881905,133.514709 92.965012,117.099937 92.793854,100.687813 
	C92.757538,97.205116 93.614296,95.459007 97.207047,94.342148 
	C110.156189,90.316750 122.973595,85.867561 136.046417,81.256134 
	C137.841644,80.519394 139.427185,80.088631 141.021484,79.693222 
	C149.996750,77.467293 149.997528,77.470192 149.996399,86.837196 
	C149.995026,98.323738 149.830246,109.813744 150.073639,121.295090 
	C150.169052,125.796623 148.584122,128.364273 144.355743,129.910278 
	C131.952545,134.445251 119.611420,139.153259 107.293312,143.915909 
	C102.662827,145.706223 98.162460,147.833084 93.246132,149.867523 
z" data-index="2"></path>
<path fill="#2B3537" opacity="1.000000" stroke="none" d="
M119.989120,66.966354 
	C129.474472,63.714314 138.959824,60.462273 149.168060,56.962387 
	C147.885574,55.764259 147.423019,54.978020 146.781662,54.784569 
	C129.172531,49.473324 111.548981,44.209614 93.913460,38.986496 
	C92.536194,38.578590 90.887047,37.995178 89.645912,38.386539 
	C73.170982,43.581459 56.746483,48.936272 38.817516,54.733589 
	C45.747986,57.082634 51.388348,59.048000 57.063755,60.906338 
	C67.328308,64.267342 77.635574,67.500160 87.864311,70.965637 
	C89.217903,71.424225 90.215996,72.932114 91.378723,73.954048 
	C90.997063,74.590202 90.615395,75.226349 90.233734,75.862503 
	C71.247635,69.758888 52.261547,63.655273 32.472195,57.293427 
	C32.472195,61.528786 32.077816,65.049141 32.663696,68.398010 
	C32.902538,69.763222 35.085728,71.260513 36.693592,71.840942 
	C52.792023,77.652382 68.926163,83.369499 85.123604,88.898254 
	C88.423355,90.024582 89.901054,91.510399 88.407661,95.559662 
	C71.764328,89.741447 55.101387,83.916367 37.877357,77.895149 
	C37.877357,92.953125 37.810684,107.414864 38.014481,121.872787 
	C38.029438,122.933830 39.812531,124.440063 41.087368,124.941330 
	C55.631676,130.660248 70.176979,136.389694 84.868660,141.711487 
	C88.493263,143.024414 89.541565,144.823807 88.805756,148.657410 
	C70.295517,142.016983 51.823364,134.956100 33.268166,127.125732 
	C33.120651,111.526970 33.111431,96.696999 32.925571,81.869255 
	C32.900837,79.895531 31.979856,77.933044 31.473932,75.965355 
	C28.110142,75.417015 26.834387,73.444832 27.001726,70.065987 
	C27.198858,66.085533 27.071342,62.087509 27.037096,58.097511 
	C27.001465,53.946247 28.562914,51.746140 33.021049,50.564606 
	C41.451797,48.330215 49.586792,45.003918 57.913986,42.348682 
	C68.243782,39.054886 78.624313,35.914143 89.036400,32.891476 
	C90.475952,32.473572 92.312653,32.826420 93.812309,33.303738 
	C112.178528,39.149471 130.479462,45.203281 148.887436,50.912651 
	C153.378540,52.305603 155.300507,54.321384 155.078506,59.290691 
	C154.518524,71.825127 156.850708,70.710487 143.770462,74.361710 
	C141.383667,75.027954 139.098648,76.058792 136.394501,76.961487 
	C132.884415,77.871964 129.746460,78.742271 125.187775,80.006630 
	C126.448486,77.066406 127.369431,74.918579 128.603882,72.039612 
	C126.910889,71.211113 124.593063,70.076843 121.689987,68.934021 
	C120.732872,68.272430 120.361000,67.619392 119.989120,66.966354 
z" data-index="3"></path>
<path fill="#727778" opacity="1.000000" stroke="none" d="
M31.668337,76.375168 
	C31.979856,77.933044 32.900837,79.895531 32.925571,81.869255 
	C33.111431,96.696999 33.120651,111.526970 33.087082,126.838974 
	C32.388226,122.451538 31.529467,117.595940 31.253223,112.707413 
	C30.923115,106.865677 30.965483,100.993347 31.078348,95.138741 
	C31.196339,89.018051 31.589733,82.902672 31.668337,76.375168 
z" data-index="4"></path>
<path fill="#263135" opacity="1.000000" stroke="none" d="
M119.605690,66.964386 
	C120.361000,67.619392 120.732872,68.272430 121.406937,69.166756 
	C120.119095,71.615967 118.529053,73.823891 117.285339,75.550903 
	C118.523079,77.675407 119.587318,79.502090 120.872025,81.707199 
	C110.991997,84.988091 102.197678,87.908455 93.469048,90.806992 
	C93.214111,90.339050 93.088814,90.209610 93.074814,90.069099 
	C91.658066,75.839104 91.655914,75.830856 104.989471,71.499573 
	C109.725288,69.961197 114.477524,68.473335 119.605690,66.964386 
z" data-index="5"></path>
<path fill="#2D3737" opacity="1.000000" stroke="none" d="
M62.834949,102.139755 
	C60.122181,101.187599 57.791527,100.335297 55.439938,99.545341 
	C47.111187,96.747520 45.905220,94.646996 48.658661,84.643196 
	C49.853409,86.454315 51.032406,88.276100 52.248291,90.072922 
	C53.097992,91.328583 53.736794,93.198120 54.920654,93.675606 
	C60.272507,95.834137 65.784866,97.594711 71.563141,99.611618 
	C71.870163,97.607719 72.110657,96.038033 72.353142,94.455345 
	C76.370895,94.433319 78.372360,96.052795 77.588715,100.242569 
	C76.889496,103.980965 74.190460,105.775620 70.213455,104.754265 
	C67.822968,104.140358 65.539192,103.110901 62.834949,102.139755 
z" data-index="6"></path>
</svg>